<?xml version="1.0" standalone="no"?>
<!DOCTYPE svg PUBLIC "-//W3C//DTD SVG 1.1//EN" "http://www.w3.org/Graphics/SVG/1.1/DTD/svg11.dtd" >
<svg xmlns="http://www.w3.org/2000/svg">
<metadata>Generated by IcoMoon</metadata>
<defs>
<font id="icomoon" horiz-adv-x="512">
<font-face units-per-em="512" ascent="480" descent="-32" />
<missing-glyph horiz-adv-x="512" />
<glyph unicode="&#x20;" d="" horiz-adv-x="256" />
<glyph unicode="&#xe600;" d="M488 385.728h-188.544c-13.248 0-24-10.752-24-24s10.752-24 24-24h188.544c13.248 0 24 10.752 24 24s-10.752 24-24 24zM488 247.968c-13.248 0-24-10.752-24-24v-115.968c0-50.72-41.28-92-92-92h-232c-50.72 0-92 41.28-92 92v232c0 50.72 41.28 92 92 92h116c13.248 0 24 10.752 24 24s-10.752 24-24 24h-116c-77.216 0-140-62.784-140-140v-232c0-77.184 62.784-140 140-140h232c77.184 0 140 62.816 140 140v115.968c0 13.248-10.752 24-24 24zM369.76 456v-188.544c0-13.248 10.752-24 24-24s24 10.752 24 24v188.544c0 13.248-10.752 24-24 24s-24-10.752-24-24z" />
<glyph unicode="&#xe601;" d="M372 480h-232c-77.216 0-140-62.784-140-140v-232c0-77.184 62.784-140 140-140h232c77.184 0 140 62.816 140 140v232c0 77.216-62.816 140-140 140zM464 108c0-46.816-35.296-85.12-80.576-90.848l0.32-4.096c2.016-16.512-9.12-30.048-24.704-30.048h-204.192c-16.64 0-28.64 13.568-26.592 30.048l0.288 4.096c-45.28 5.728-80.544 44.064-80.544 90.848v232c0 50.72 41.28 92 92 92h232c50.72 0 92-41.28 92-92v-232zM337.952 206.432h-163.872c-16.64 0-31.84-13.504-33.824-30.048l-11.744-159.232-0.288-4.096c-2.048-16.512 9.952-30.048 26.592-30.048h204.192c15.584 0 26.72 13.568 24.704 30.048l-0.32 4.096-11.648 159.232c-1.888 16.544-17.216 30.048-33.792 30.048zM333.056 306.944c0-42.557-34.499-77.056-77.056-77.056s-77.056 34.499-77.056 77.056c0 42.557 34.499 77.056 77.056 77.056s77.056-34.499 77.056-77.056z" />
<glyph unicode="&#xe602;" d="M95.192 221.795h307.515v-47.38h-307.515v47.38zM95.192 350.897h380.692v-47.38h-380.692v47.38zM497.152 480h-423.227c-40.684 0-73.925-34.501-73.925-76.721v-281.285c0-42.181 33.24-76.721 73.925-76.721h203.461l67.426-70.026c4.647-4.844 10.752-7.247 16.856-7.247s12.209 2.402 16.856 7.247l67.427 70.026h51.24c40.606 0 73.925 34.541 73.925 76.721v281.285c-0.039 42.221-33.359 76.721-73.964 76.721zM521.768 121.994c0-14.021-11.067-25.521-24.615-25.521h-59.353c-6.104 0-12.209-2.481-16.856-7.247l-59.313-61.597-59.274 61.597c-4.608 4.765-10.752 7.247-16.817 7.247h-211.613c-13.549 0-24.655 11.5-24.655 25.521v281.285c0 14.099 11.106 25.6 24.655 25.6h423.227c13.548 0 24.615-11.501 24.615-25.6v-281.285z" horiz-adv-x="571" />
<glyph unicode="&#xe603;" d="M147.453 463.148v-75.833c0-9.31 7.541-16.852 16.852-16.852h33.703c9.31 0 16.852 7.541 16.852 16.852v75.833c0 9.268-7.499 16.767-16.726 16.852h-33.957c-9.226-0.084-16.726-7.584-16.726-16.852zM417.082 463.148v-75.833c0-9.31 7.541-16.852 16.81-16.852h33.704c9.353 0 16.852 7.541 16.852 16.852v75.833c0 9.268-7.499 16.767-16.767 16.852h-33.914c-9.184-0.084-16.683-7.584-16.683-16.852zM550.169 431.425h-44.615v-54.516h44.573c14.998 0 27.258-12.26 27.258-27.258v-299.878c0-14.956-12.26-27.258-27.258-27.258h-468.354c-15.040 0-27.3 12.302-27.3 27.258v299.878c0 14.998 12.26 27.258 27.3 27.258h44.615v54.516h-44.615c-44.952 0-81.647-36.695-81.773-81.563v-300.257c0.127-44.868 36.821-81.605 81.773-81.605h468.354c44.952 0 81.774 36.821 81.774 81.774v299.878c0.042 44.995-36.779 81.774-81.731 81.774zM334.382 376.909h61.635v54.516h-160.092v-54.516h58.729zM165.484 274.913c0 8.341-6.74 15.040-14.998 15.040h-30.123c-8.341 0-15.040-6.656-15.040-15.040v-30.081c0-8.341 6.698-15.040 15.040-15.040h30.123c8.257 0 14.998 6.698 14.998 15.040v30.081zM285.849 274.913c0 8.341-6.699 15.040-15.040 15.040h-30.081c-8.341 0-15.040-6.698-15.040-15.040v-30.081c0-8.341 6.698-15.040 15.040-15.040h30.081c8.341 0 15.040 6.698 15.040 15.040v30.081zM150.487 169.589h-30.123c-8.341 0-15.040-6.699-15.040-15.040v-30.081c0-8.341 6.698-15.040 15.040-15.040h30.123c8.257 0 14.998 6.699 14.998 15.040v30.081c0 8.341-6.74 15.040-14.998 15.040zM270.808 169.589h-30.081c-8.341 0-15.040-6.699-15.040-14.998v-30.081c0-8.341 6.698-15.040 15.040-15.040h30.081c8.341 0 15.040 6.699 15.040 15.040v30.038c0 8.341-6.699 15.040-15.040 15.040zM406.255 274.913c0 8.341-6.699 15.040-15.040 15.040h-30.123c-8.341 0-15.040-6.698-15.040-15.040v-30.081c0-8.341 6.699-15.040 15.040-15.040h30.081c8.341 0 15.040 6.698 15.040 15.040v30.081zM526.619 274.913c0 8.341-6.74 15.040-15.040 15.040h-30.123c-8.257 0-14.998-6.698-14.998-15.040v-30.081c0-8.341 6.74-15.040 14.998-15.040h30.123c8.3 0 15.040 6.698 15.040 15.040v30.081zM361.092 109.429h30.081c8.341 0 15.040 6.699 15.040 15.040v30.080c0 8.3-6.699 14.998-15.040 14.998h-30.081c-8.341 0-15.040-6.699-15.040-14.998v-30.081c0-8.341 6.699-15.040 15.040-15.040zM511.579 169.589h-30.123c-8.257 0-14.998-6.699-14.998-14.998v-30.081c0-8.341 6.74-15.040 14.998-15.040h30.123c8.3 0 15.040 6.699 15.040 15.040v30.038c0 8.341-6.74 15.040-15.040 15.040z" horiz-adv-x="632" />
<glyph unicode="&#xe604;" d="M578.514-2.118v392.797c-0.139 16.477-13.591 29.835-30.068 29.835h-41.798v-66.141c0-28.393-23.226-51.619-51.572-51.619-28.486 0-51.712 23.226-51.712 51.619v66.141h-228.213v-66.141c0-28.393-23.226-51.619-51.666-51.619-28.392 0-51.619 23.226-51.619 51.619v66.141h-41.798c-16.523 0-30.069-13.498-30.069-30.068v-392.332c0-16.57 13.544-30.115 30.069-30.115h518.376c16.477 0 29.928 13.405 30.068 29.882zM520.053 28.835c0-16.524-13.498-30.069-30.068-30.069h-401.501c-16.523 0-30.069 13.544-30.069 30.068v220.393c0 16.523 13.544 30.069 30.069 30.069h401.501c16.524 0 30.068-13.544 30.068-30.069v-220.393zM98.025 454.539v-93.51c0-14.010 11.496-25.507 25.507-25.507 14.057 0 25.507 11.496 25.507 25.507v93.51c0 13.964-11.45 25.46-25.507 25.46-14.010 0-25.507-11.496-25.507-25.46zM429.475 454.539v-93.51c0-14.010 11.45-25.507 25.6-25.507 14.010 0 25.507 11.496 25.507 25.507v93.51c-0.046 13.964-11.543 25.46-25.553 25.46-14.103 0-25.553-11.496-25.553-25.46zM192.093 223.162h-55.203c-9.169 0-16.57-7.401-16.57-16.524v-41.798c0-9.17 7.4-16.57 16.57-16.57h55.203c9.123 0 16.57 7.401 16.57 16.57v41.798c0 9.123-7.447 16.524-16.57 16.524zM316.882 223.162h-55.25c-9.169 0-16.57-7.401-16.57-16.524v-41.798c0-9.17 7.4-16.57 16.57-16.57h55.25c9.123 0 16.57 7.401 16.57 16.57v41.798c0 9.123-7.447 16.524-16.57 16.524zM441.623 223.162h-55.25c-9.123 0-16.524-7.401-16.524-16.524v-41.798c0-9.17 7.401-16.57 16.524-16.57h55.296c9.123 0 16.524 7.401 16.524 16.57v41.798c0 9.123-7.401 16.524-16.57 16.524zM192.093 123.788h-55.203c-9.169 0-16.57-7.401-16.57-16.477v-41.844c0-9.123 7.4-16.524 16.57-16.524h55.203c9.123 0 16.57 7.401 16.57 16.524v41.798c0 9.077-7.447 16.524-16.57 16.524zM316.882 123.788h-55.25c-9.169 0-16.57-7.401-16.57-16.477v-41.844c0-9.123 7.4-16.524 16.57-16.524h55.25c9.123 0 16.57 7.401 16.57 16.524v41.798c0 9.077-7.447 16.524-16.57 16.524zM441.623 123.788h-55.25c-9.123 0-16.524-7.401-16.524-16.477v-41.844c0-9.123 7.401-16.524 16.524-16.524h55.296c9.123 0 16.524 7.401 16.524 16.524v41.798c0 9.077-7.401 16.524-16.57 16.524z" horiz-adv-x="579" />
<glyph unicode="&#xe605;" d="M352.731 15.507l39.132 336.055h-372.517l39.059-336.055c3.072-26.112 26.989-47.507 53.357-47.507h187.612c26.332 0 50.322 21.394 53.358 47.507zM126.903 20.846c-8.924-0.768-16.749 5.851-17.481 14.702l-22.93 270.116c-0.695 8.96 5.852 16.75 14.775 17.517 8.887 0.732 16.677-5.815 17.445-14.775l22.857-270.116c0.804-8.887-5.888-16.713-14.665-17.445zM221.696 36.937c0-8.887-7.168-16.091-16.128-16.091-8.851 0-16.055 7.204-16.055 16.091v270.153c0 8.923 7.204 16.164 16.055 16.164 8.96 0 16.128-7.241 16.128-16.164v-270.153zM301.788 35.584c-0.768-8.851-8.594-15.469-17.481-14.702-8.923 0.731-15.469 8.521-14.775 17.445l22.93 270.116c0.768 8.96 8.558 15.506 17.445 14.775 8.923-0.768 15.507-8.558 14.812-17.517l-22.93-270.116zM267.045 453.815v1.353c0 13.678-11.191 24.832-24.869 24.832h-55.917c-13.641 0-24.869-11.154-24.869-24.796v-1.389c0-1.865 0.292-3.657 0.659-5.412h104.375c0.365 1.755 0.622 3.547 0.622 5.412zM371.895 426.204h-332.617c-22.784-0.329-39.205-14.007-39.278-35.108v-14.885h411.136v14.885c-0.147 21.101-16.531 34.779-39.241 35.108z" horiz-adv-x="411" />
<glyph unicode="&#xe606;" d="M283.335 474.222c-13.567 9.472-31.779 6.948-40.628-5.595l-25.488-36.057 153.809-107.257 25.488 36.13c8.813 12.58 5.12 30.389-8.484 39.824l-104.697 72.955zM194.875 75.878l153.516 217.329-153.845 107.256-153.443-217.328c-7.131-46.515 108.719-127.698 153.772-107.257zM0.658-20.517l3.803-10.861c11.556-7.68 143.643 56.060 163.828 73.137-45.858-14.774-151.102 58.803-150.627 104.587-9.837-23.258-20.442-135.671-17.005-166.863z" horiz-adv-x="402" />
<glyph unicode="&#xe607;" d="M413.312 295.296c-39.296-39.36-39.296-103.168 0-142.528 39.168-39.488 102.784-39.488 142.080 0 39.232 39.296 39.232 103.168 0 142.528-39.296 39.36-102.912 39.36-142.080 0zM484.352 480c-270.528 0-484.352-256-484.352-256s213.824-256 484.352-256c57.472 0 112.512 11.648 163.328 29.76l-66.816 67.264c-71.424-43.776-165.888-34.688-227.648 27.264-72.512 72.768-72.512 190.592 0 263.36 72.448 72.704 189.888 72.704 262.4 0 61.632-62.016 70.656-156.8 27.2-228.416l90.688-91.072c141.568 75.84 235.072 187.84 235.072 187.84s-213.696 256-484.224 256z" horiz-adv-x="969" />
<glyph unicode="&#xe608;" d="M213.333 245.333l90.692-85.333h-240.025v-42.666h240.025l-90.692-85.368h64l138.683 106.701-138.683 106.666h-64zM0 480v-512h106.632v42.666h-63.966v426.666h63.966v42.666h-106.632zM384 426.683l117.351-117.351h-117.351v117.351zM128 480v-298.701h42.666v256.034h170.666v-170.667h170.667v-256h-341.334v85.334h-42.666v-128h426.666v351.983l-159.983 160.017h-266.683z" horiz-adv-x="555" />
<glyph unicode="&#xe609;" d="M372 480h-232c-77.216 0-140-62.784-140-140v-232c0-77.184 62.784-140 140-140h232c77.184 0 140 62.816 140 140v232c0 77.216-62.816 140-140 140zM464 108c0-50.72-41.28-92-92-92h-232c-50.72 0-92 41.28-92 92v232c0 50.72 41.28 92 92 92h232c50.72 0 92-41.28 92-92v-232zM360.224 289.12h-8.608v20.8c-0.032 52.8-42.848 95.584-95.616 95.584-52.8 0-95.584-42.784-95.616-95.616v-20.768h-8.608c-6.112 0-11.040-4.928-11.040-11.008v-192.576c0-6.176 4.928-11.072 11.040-11.072h208.448c6.080 0 11.040 4.864 11.040 11.072v192.576c0 6.080-4.96 11.008-11.040 11.008zM269.472 186.112l8-64.256c0.64-5.12-3.104-9.376-8.288-9.376h-26.368c-5.184 0-8.928 4.256-8.288 9.376l8.032 64.256c-12.032 5.216-20.416 17.152-20.416 31.136 0 18.688 15.136 33.92 33.856 33.92s33.888-15.2 33.888-33.92c0-13.984-8.416-25.92-20.416-31.136zM307.424 289.12h-102.848v20.8c0 14.304 5.664 26.976 15.040 36.384 9.376 9.312 22.144 15.040 36.384 15.040 14.272 0 27.008-5.728 36.384-15.072 9.376-9.408 15.072-22.080 15.072-36.384v-20.768z" />
<glyph unicode="&#xe60a;" d="M590.814 451.759c-0.118 15.558-12.683 28.202-28.319 28.241h-534.136c-15.598-0.039-28.359-12.801-28.359-28.438v-455.163c0-15.676 12.761-28.399 28.438-28.399h533.979c15.597 0 28.28 12.565 28.399 28.241v455.518zM562.101-3.286h-533.388v454.573h533.427v-454.573zM280.873 410.166h29.147v-181.42h-29.147v181.419zM391.947 364.831l-16.818-23.79c36.709-25.917 58.609-68.101 58.609-112.846 0-76.294-62.115-138.29-138.369-138.29s-138.29 61.996-138.29 138.29c0 44.744 21.939 86.929 58.648 112.885l-16.779 23.751c-44.429-31.392-70.898-82.439-70.898-136.636 0-92.364 75.073-167.397 167.358-167.397 92.364 0 167.437 75.034 167.437 167.398 0 54.158-26.548 105.244-70.898 136.636z" horiz-adv-x="591" />
<glyph unicode="&#xe60b;" d="M632.739 480h-542.581c-49.617-0.139-90.159-40.728-90.159-90.344v-331.264c0-49.757 40.681-90.392 90.344-90.392h542.115c49.617 0 90.298 40.634 90.298 90.344v331.31c0.047 49.618-40.495 90.205-90.019 90.344zM662.574 58.344c0-16.57-13.544-30.115-30.068-30.115h-542.162c-16.57 0-30.115 13.545-30.115 30.115v331.31c0 16.57 13.544 30.161 30.115 30.161h542.115c16.524 0 30.068-13.591 30.068-30.161v-331.31zM561.664 379.136l-176.174-82.851c-1.536 0-2.979-1.489-4.515-2.979-10.613-7.541-24.157-7.541-34.63 0-1.49 1.489-3.026 1.489-4.469 2.979l-176.221 82.851c-15.034 7.494-33.094 0-40.634-15.080-7.54-15.034 0-33.141 15.034-40.634l174.685-81.315c15.081-9.030 31.651-15.081 48.221-15.081s33.14 4.515 48.175 15.081l174.685 81.315c15.034 7.494 21.085 25.6 15.034 40.634-7.54 15.080-24.064 22.575-39.192 15.080z" horiz-adv-x="723" />
<glyph unicode="&#xe60c;" d="M575.882 68.785v61.873c1.733 0.158 3.466 0.354 5.002 0.985 5.789 2.481 9.807 8.113 9.885 14.769v155.254c-0.118 8.349-6.616 15.005-14.888 15.714v61.873c0 55.571-45.213 100.746-100.785 100.746h-374.312c-55.611 0-100.785-45.174-100.785-100.746v-310.509c0-55.572 45.174-100.746 100.785-100.746h374.351c55.533 0 100.746 45.174 100.746 100.785zM558.434 285.283v-122.565h-145.487c-33.792 0-61.322 27.49-61.322 61.322 0 33.792 27.49 61.283 61.322 61.283h145.487zM543.547 68.785c0-37.77-30.681-68.45-68.411-68.45h-374.351c-37.73 0-68.451 30.68-68.451 68.451v310.469c0 37.731 30.72 68.411 68.451 68.411h374.351c37.73 0 68.411-30.68 68.411-68.411v-61.637h-130.6c-51.673 0-93.617-41.984-93.617-93.617 0-51.673 41.945-93.617 93.617-93.617h130.6v-61.597zM377.817 224.827c0-23.512 19.062-42.536 42.536-42.536 23.434 0 42.496 19.023 42.496 42.536 0 23.394-19.062 42.496-42.496 42.496-23.473-0.039-42.536-19.101-42.536-42.496zM420.352 234.949c5.632 0 10.161-4.569 10.161-10.161 0-5.632-4.529-10.2-10.161-10.2s-10.2 4.569-10.2 10.201c0 5.593 4.569 10.161 10.2 10.161z" horiz-adv-x="591" />
<glyph unicode="&#xe60d;" d="M524.249 479.252l-450.402 0.748c-41.117-3.229-73.846-37.651-73.846-79.714v-351.901c0-44.19 35.998-80.384 80.029-80.384h430.71c43.992 0 80.029 36.195 80.029 80.384v351.901c0 39.542-28.947 72.468-66.52 78.966zM544.611 400.68v-360.685h-1.536c-3.347-12.209-14.139-21.661-27.175-21.661h-441.029c-12.997 0-23.867 9.452-27.254 21.661h-1.536v368.049h1.536c3.387 12.17 14.257 21.583 27.254 21.583h441.108c12.957 0 23.788-9.413 27.096-21.583h1.536v-7.365zM93.578 352.039h403.574v-51.869h-403.574v51.87zM93.578 249.954h403.574v-51.909h-403.574v51.909zM93.578 147.83h291.88v-51.87h-291.88v51.87z" horiz-adv-x="591" />
<glyph unicode="&#xe60e;" d="M590.769 22.627v268.682c-0.236 30.168-24.694 54.627-54.981 54.627h-26.387v134.065h-424.015v-134.104h-30.405c-30.326 0-54.981-24.655-54.981-54.981v-267.933c0-30.287 24.655-54.981 54.981-54.981h480.808c30.208 0 54.745 24.497 54.981 54.627zM122.093 440.615h350.681v-151.709l-177.31-106.851-173.371 104.369v154.191zM85.386 309.268v-0.788l-1.26 0.788h1.26zM36.706 24.596v266.319c0 1.339 0.512 2.521 0.748 3.702l181.76-109.411-182.508-160.611zM69.593 4.667l182.548 160.65 33.871-20.401c0.118-0.039 0.236-0.039 0.354-0.079 2.757-1.615 5.868-2.481 9.098-2.481s6.301 0.866 9.137 2.481c0.079 0.079 0.158 0.039 0.276 0.079l41.63 25.048 187.904-165.297h-464.817zM554.221 36.096l-174.75 153.718 173.962 104.842c0.236-1.221 0.827-2.403 0.827-3.741v-254.819zM169.157 332.938h127.645c10.122 0 18.353 8.192 18.353 18.314s-8.231 18.353-18.353 18.353h-127.645c-10.083 0-18.314-8.232-18.314-18.353s8.192-18.314 18.314-18.314zM171.481 386.029h122.525c10.161 0 18.353 8.192 18.353 18.274 0 10.161-8.192 18.353-18.353 18.353h-122.525c-10.122 0-18.314-8.192-18.314-18.353 0-10.082 8.192-18.274 18.314-18.274zM385.693 298.949c0 10.122-8.192 18.353-18.314 18.353h-195.899c-10.122-0.039-18.314-8.231-18.314-18.353s8.192-18.314 18.314-18.314h195.939c10.082 0 18.274 8.192 18.274 18.314z" horiz-adv-x="591" />
<glyph unicode="&#xe60f;" d="M249.226 180.795c-30.405 7.010-51.358 20.795-32.296 39.818 55.651 55.69 13.588 123.471-38.046 123.471-51.594 0-93.224-67.781-37.494-123.471 19.023-19.023-2.403-32.808-32.808-39.818-31.075-7.168-50.255-23.591-42.733-53.327h226.579c7.522 29.736-12.13 46.159-43.205 53.327zM342.803 161.103h183.729v-33.635h-183.729v33.635zM342.803 245.031h183.729v-33.555h-183.729v33.555zM342.803 328.96h183.729v-33.556h-183.729v33.556zM590.769 451.8c-0.118 15.557-12.76 28.2-28.396 28.2h-533.898c-15.714 0-28.475-12.721-28.475-28.397v-455.168c0-15.675 12.721-28.397 28.436-28.397h533.937c15.596 0 28.278 12.563 28.396 28.239v455.522zM562.058-3.249h-533.346v454.577h533.346v-454.577z" horiz-adv-x="591" />
<glyph unicode="&#xe610;" d="M455.125 195.541c0-62.846-50.947-113.792-113.792-113.792s-113.792 50.947-113.792 113.792c0 62.846 50.946 113.792 113.792 113.792s113.792-50.947 113.792-113.792zM625.792 423.082h-199.125v28.459c0 15.744-12.757 28.459-28.459 28.459h-113.75c-15.702 0-28.459-12.714-28.459-28.459v-28.459h-199.125c-31.402 0-56.874-25.472-56.874-56.875v-341.333c0-31.36 25.472-56.875 56.874-56.875h568.918c31.36 0 56.875 25.514 56.875 56.875v341.334c0 31.402-25.514 56.875-56.875 56.875zM341.334 24.875c-94.208 0-170.667 76.459-170.667 170.667 0 94.25 76.458 170.667 170.667 170.667s170.666-76.416 170.666-170.667c0-94.208-76.459-170.667-170.667-170.667z" horiz-adv-x="683" />
<glyph unicode="&#xe611;" d="M0-17.97c0-54.414 204.714 67.066 258.543 67.066 53.863 0 258.543-121.497 258.543-67.083v497.987h-517.085v-497.97z" horiz-adv-x="517" />
<glyph unicode="&#xe612;" d="M587.822 480h-500.69c-47.849-0.139-87.133-40.68-87.133-90.344v-331.264c0-49.711 39.377-90.392 87.366-90.392h500.224c47.942 0 87.32 40.68 87.32 90.344v331.31c0 49.664-39.284 90.205-87.087 90.344zM616.681 58.344c0-16.524-13.080-30.069-29.091-30.069h-500.224c-16.011 0-29.138 13.544-29.138 30.068v331.31c0 16.617 13.126 30.208 29.138 30.208h500.224c16.011 0 29.091-13.591 29.091-30.208v-331.31zM445.998 154.647l2.56 4.608c10.752 19.736 16.477 42.17 16.477 64.745 0 35.281-13.265 68.469-37.423 93.416-24.064 24.902-56.087 38.632-90.205 38.632-34.164 0-66.234-13.731-90.298-38.632-49.803-51.526-49.803-135.308 0-186.787 24.111-24.949 56.18-38.68 90.298-38.68 21.784 0 43.474 5.911 62.603 17.036l4.469 2.56 56.553-58.507c11.171-11.45 30.348-11.497 41.611 0 11.403 11.822 11.403 31.185-0.046 43.055l-56.599 58.554zM395.217 185.274c-2.467-4.003-5.539-7.959-9.123-11.729-13.079-13.405-30.348-20.76-48.64-20.76-18.432 0-35.747 7.354-48.779 20.76-26.81 27.88-26.81 72.983-0.046 100.817 13.079 13.452 30.394 20.806 48.826 20.806 18.339 0 35.56-7.4 48.594-20.852 13.033-13.405 20.248-31.232 20.248-50.315 0-13.87-3.863-27.276-11.078-38.726z" horiz-adv-x="675" />
<glyph unicode="&#xe613;" d="M333.265 422.819c-76.218 76.241-199.843 76.241-276.084 0s-76.242-199.843 0-276.108c76.242-76.241 199.843-76.241 276.084 0 76.288 76.264 76.288 199.866 0 276.108zM305.943 174.057c-61.137-61.114-160.28-61.114-221.44 0-61.138 61.161-61.138 160.279 0 221.44 61.161 61.137 160.303 61.137 221.44 0 61.114-61.161 61.114-160.28 0-221.44zM278.179 367.686c-45.824 45.8-120.064 45.8-165.864 0-45.824-45.801-45.824-120.064 0-165.841 45.8-45.8 120.040-45.8 165.841 0s45.8 120.064 0.024 165.841zM222.371 311.901c-15.011-14.988-39.285-14.988-54.272 0s-14.988 39.285 0 54.272 39.261 14.988 54.272 0c14.988-14.988 14.988-39.284 0-54.272zM512 7.051v0.070c0 9.984-3.817 19.968-11.45 27.625l-83.224 83.177c-15.243 15.267-40.006 15.267-55.25 0-15.267-15.243-15.267-40.006 0-55.272l83.2-83.176c15.267-15.267 40.006-15.267 55.296 0 7.61 7.61 11.427 17.594 11.427 27.578z" />
<glyph unicode="&#xe614;" d="M573.794 435.968h-377.974c-3.781 25.442-15.951 44.032-30.365 44.032s-26.545-18.589-30.365-44.032h-118.154c-9.373 0-16.936-7.601-16.936-16.935 0-9.374 7.562-16.936 16.936-16.936h118.154c3.821-25.442 15.951-44.072 30.365-44.072s26.584 18.629 30.365 44.072h377.974c9.374 0 16.975 7.562 16.975 16.936 0 9.334-7.562 16.935-16.975 16.935zM573.794 240.935h-73.649c-3.82 25.442-15.911 44.072-30.365 44.072s-26.584-18.629-30.365-44.072h-422.479c-9.373 0-16.936-7.562-16.936-16.935 0-9.334 7.562-16.935 16.936-16.935h422.479c3.82-25.442 15.951-44.072 30.365-44.072 14.375 0 26.545 18.629 30.365 44.072h73.649c9.413 0 16.975 7.601 16.975 16.935 0 9.374-7.562 16.935-16.975 16.935zM573.794 45.942h-288.808c-3.781 25.403-15.911 44.032-30.365 44.032s-26.545-18.629-30.365-44.032h-207.321c-9.373 0-16.936-7.562-16.936-16.975 0-9.334 7.562-16.935 16.936-16.935h207.321c3.821-25.325 15.872-43.914 30.248-44.032h0.237c14.376 0.118 26.427 18.707 30.247 44.032h288.808c9.374 0 16.975 7.562 16.975 16.935s-7.562 16.975-16.975 16.975z" horiz-adv-x="591" />
<glyph unicode="&#xe615;" d="M467.925 330.368c-17.28 12.587-4.95 27.904-4.95 27.904h-0.683c19.882 0 33.11 29.142 33.11 54.272 0 38.699-31.402 67.456-70.101 67.456s-70.101-32.683-70.101-71.424c0-25.558 13.654-48.64 34.219-60.885 2.389-2.346 9.173-11.008-3.925-21.334-28.63-9.344-52.822-28.714-68.608-53.632 49.365-36.138 82.901-91.136 91.52-152.704 5.546-0.171 11.178-0.384 16.896-0.384 70.827 0 128.298 16.298 128.298 87.168 0 55.936-35.798 106.026-85.674 123.563zM182.613-31.957c100.779 0 182.57 19.413 182.57 120.235 0 79.488-50.944 147.2-121.899 172.202-24.704 17.877-7.040 32.086-7.040 32.086l-0.982 0.085c28.33 17.622 47.147 49.024 47.147 84.864 0 55.083-44.672 99.798-99.798 99.798-55.168 0-99.882-44.714-99.882-99.798 0-36.48 19.584-68.352 48.768-85.845 3.328-3.243 13.013-15.232-5.546-29.867-73.088-23.808-125.952-92.458-125.952-173.525 0-100.822 81.749-120.235 182.613-120.235z" horiz-adv-x="554" />
<glyph unicode="&#xe616;" d="M211.968 462.805c-77.184-19.114-147.499-52.906-208.384-97.92-0.896-2.219-1.45-4.438-1.706-6.442-0.939-7.765-2.474-27.606-1.706-49.75 0.17-41.045 9.6-61.44 12.63-66.858 4.864-12.075 11.605-21.846 21.589-26.325 1.024-0.426 1.962-0.64 2.986-0.64 1.237 0 2.389 0.256 3.37 0.853l130.774 77.781c1.792 0.896 2.901 2.346 3.584 4.053 0.214 0.726-0.214 60.842-0.214 60.842-0.214 0.341 0 0.811 0 1.365v30.635c11.69 3.798 40.406 7.254 52.565 10.283 82.176 20.31 170.496 20.267 252.63 0 10.794-2.688 38.23-5.717 48.683-9.046v-30.848c0.47-1.024 0.341-1.834 0-2.389v-20.565l0.47-0.256c0.427-17.493 0.811-39.722 0.896-40.064 0.683-1.707 1.835-3.115 3.499-4.010l130.774-77.782c1.024-0.598 2.218-0.853 3.37-0.853 1.067 0 2.005 0.214 3.029 0.64 9.216 4.181 15.83 12.886 20.48 23.722 0.256 0.384 12.288 18.688 13.44 63.061 1.322 24.747-0.427 47.702-1.451 56.149-0.298 2.646-1.322 5.675-2.688 8.875-60.16 43.776-129.28 76.757-205.142 95.488-45.909 11.392-93.44 17.195-141.397 17.195h-0.683c-47.872 0-95.445-5.803-141.398-17.195zM390.315 167.211c0-20.807-16.868-37.675-37.675-37.675s-37.675 16.868-37.675 37.675c0 20.807 16.868 37.675 37.675 37.675s37.675-16.868 37.675-37.675zM578.005-23.936v57.387h50.346c4.438 0 8.106 3.67 8.106 8.106v129.238c0 3.2-1.92 6.058-4.65 7.296l-174.123 105.259v78.25c-0.469 0.085-0.896 0.256-1.365 0.384-28.971 7.168-41.813 11.69-71.851 13.482v-68.053h-64.469v67.798c-28.928-1.963-40.832-6.358-68.822-13.226-1.322-0.299-2.56-0.811-3.925-1.152v-77.525l-171.264-105.088c-3.029-1.238-4.992-4.096-4.992-7.424v-129.195c0-4.438 3.627-8.106 8.106-8.106h46.891v-57.387c0-4.438 3.584-8.064 8.107-8.064h135.338c4.48 0 8.149 3.627 8.149 8.064v40.576h148.864v-40.576c0-4.438 3.584-8.064 8.064-8.064h135.339c4.523-0.043 8.149 3.584 8.149 8.022zM352.64 80.598c-47.829 0-86.741 38.87-86.741 86.656 0 47.829 38.912 86.698 86.741 86.698s86.656-38.869 86.656-86.698c0-47.786-38.827-86.656-86.656-86.656z" horiz-adv-x="706" />
<glyph unicode="&#xe617;" d="M256.036 358.839c-10.679 0-19.31-8.667-19.31-19.31l-8.996-141.788-58.002-37.888c-9.252-5.339-12.471-17.188-7.095-26.368 5.303-9.252 17.152-12.397 26.368-7.058l63.817 32.365c1.024-0.11 2.121-0.329 3.181-0.329 16.018 0 29.001 12.983 29.001 29.001l-9.692 152.101c0 10.642-8.594 19.273-19.273 19.273zM512 227.108c-0.11 8.155-0.622 16.238-1.463 24.173l-63.232 22.893c5.632-21.357 7.936-43.959 5.961-67.181-9.509-108.873-105.252-189.476-214.162-180.261-108.983 9.545-189.513 105.252-180.333 214.236 9.545 108.909 105.216 189.476 214.199 180.26 46.848-4.132 88.21-24.429 119.589-54.747l-31.561-26.588 135.607-49.189-25.308 142.19-34.084-28.782c-41.252 41.582-96.512 69.486-159.341 74.935-8.74 0.768-17.408 1.060-25.965 0.951h-0.292c-129.536-2.121-239.287-102.071-250.697-234.057-12.032-140.836 92.343-264.813 233.070-276.992 140.946-12.068 264.96 92.269 277.101 233.070 0.731 8.265 0.988 16.421 0.877 24.503v0.585z" />
<glyph unicode="&#xe618;" d="M369.418 475.795c-20.149 12.141-51.891-3.182-70.87-34.228-13.75-22.527-52.988-119.324-73.504-170.777l-33.314 20.186c-22.453 13.494-50.428 10.166-69.079-6.363l189.756-114.497c6.216 23.989-3.767 50.209-26.183 63.739l-28.962 17.517c36.057 44.907 105.209 131.355 114.278 146.202 18.979 31.047 17.992 66.043-2.121 78.221zM350.914 410.849c-13.421-21.868-31.12-35.362-39.64-30.243-8.63 5.156-4.681 27.024 8.704 48.929 13.274 21.795 31.047 35.399 39.641 30.243 8.484-5.229 4.644-27.061-8.704-48.929zM8.813 103.122c-2.121-1.609-4.022-3.693-5.522-6.144-5.851-9.581-3.657-21.502 4.864-26.659 3.803-2.304 8.264-2.743 12.543-1.865 1.097-4.132 3.584-7.863 7.387-10.166 4.315-2.523 9.361-2.962 14.042-1.536 0.914-4.791 3.584-9.069 7.825-11.629 3.986-2.377 8.593-2.816 12.982-1.755 1.060-4.351 3.583-8.264 7.569-10.642s8.63-2.853 13.055-1.719c1.061-4.425 3.62-8.337 7.57-10.751 4.169-2.486 9.069-2.889 13.677-1.609 0.951-4.681 3.547-8.776 7.716-11.3 3.95-2.341 8.594-2.816 12.982-1.719 1.097-4.425 3.584-8.301 7.533-10.642 3.876-2.377 8.375-2.816 12.762-1.829 1.060-4.242 3.583-8.045 7.46-10.349 3.986-2.413 8.63-2.853 13.055-1.719 1.060-4.462 3.62-8.375 7.607-10.788 8.52-5.156 20.186-1.572 26.037 7.972 1.536 2.45 2.413 5.083 2.889 7.716l29.182 47.685-194.107 117.13-29.109-47.685zM305.825 154.428c0.951 1.536 1.719 3.108 2.523 4.681l-193.632 116.801c-1.024-1.426-2.048-2.852-2.999-4.389l-62.679-102.575 194.034-117.094 62.752 102.576z" horiz-adv-x="385" />
<glyph unicode="&#xe619;" d="M540.114 118.063c-47.57 82.432-125.579 217.553-173.196 300.032-47.709 82.572-125.673 82.572-173.288 0-47.616-82.525-125.672-217.647-173.288-300.032-47.663-82.572-8.704-150.063 86.668-150.063h346.438c95.371 0 134.376 67.491 86.668 150.063zM277.923 59.136c-24.344 0-44.125 19.688-44.125 44.032 0 24.437 19.782 44.218 44.125 44.218 24.39 0 44.125-19.782 44.125-44.218 0-24.344-19.736-44.032-44.125-44.032zM323.724 219.858c0-25.228-20.526-45.754-45.8-45.754-25.227 0-45.754 20.48-45.754 45.754v78.476c0 25.274 20.526 45.754 45.754 45.754 25.274 0 45.8-20.48 45.8-45.754v-78.476z" horiz-adv-x="561" />
</font>
</defs>
</svg>
